<svg xmlns="http://www.w3.org/2000/svg" width="1200" height="630" viewBox="0 0 1200 630">
  <defs>
    <pattern id="dots" width="28" height="28" patternUnits="userSpaceOnUse"><circle cx="1.5" cy="1.5" r="1.5" fill="#6b5f3f" opacity=".12"/></pattern>
    <filter id="shadow" x="-20%" y="-20%" width="140%" height="160%"><feDropShadow dx="0" dy="10" stdDeviation="12" flood-color="#503c14" flood-opacity=".13"/></filter>
  </defs>
  <rect width="1200" height="630" fill="#f5f0e8"/>
  <rect width="1200" height="630" fill="url(#dots)"/>
  <rect x="0" y="0" width="1200" height="630" fill="#f5f0e8" opacity=".78"/>
  <text x="86" y="115" font-family="sans-serif" font-size="22" font-weight="700" letter-spacing="4" fill="#925924">LOCAL-FIRST · SVG MIND MAPPING</text>
  <text x="86" y="220" font-family="sans-serif" font-size="76" font-weight="800" fill="#3a3020">MindMap</text>
  <text x="86" y="305" font-family="sans-serif" font-size="76" font-weight="800" fill="#3a3020">Maker</text>
  <text x="86" y="365" font-family="sans-serif" font-size="30" font-weight="600" fill="#6c5c46">思考を、軽く、自由につなぐ。</text>
  <rect x="86" y="515" rx="30" ry="30" width="390" height="58" fill="#ede7d9" stroke="#6b5f3f" stroke-opacity=".18" stroke-width="2"/>
  <text x="108" y="552" font-family="sans-serif" font-size="18" font-weight="700" fill="#6b5f3f">Vanilla JavaScript · SVG · Responsive</text>
  <g transform="translate(720,40)">
    <path d="M100 260 L335 90 M120 270 L320 245 M105 285 L345 410" stroke="#6b5f3f" stroke-width="5" stroke-linecap="round" fill="none"/>
    <rect x="15" y="220" width="170" height="88" rx="18" fill="#6b5f3f"/>
    <text x="100" y="274" text-anchor="middle" font-family="sans-serif" font-size="23" font-weight="700" fill="#fffaf0">中心テーマ</text>
    <ellipse cx="360" cy="82" rx="78" ry="42" fill="#fff4df" stroke="#925924" stroke-width="4"/>
    <text x="360" y="90" text-anchor="middle" font-family="sans-serif" font-size="22" font-weight="700" fill="#3a3020">アイデア</text>
    <rect x="300" y="214" width="150" height="68" rx="14" fill="#fffaf0" stroke="#6b5f3f" stroke-width="4"/>
    <text x="375" y="256" text-anchor="middle" font-family="sans-serif" font-size="22" font-weight="700" fill="#3a3020">整理</text>
    <polygon points="380,356 450,410 380,464 310,410" fill="#f0e6d4" stroke="#6b5f3f" stroke-width="4"/>
    <text x="380" y="418" text-anchor="middle" font-family="sans-serif" font-size="22" font-weight="700" fill="#3a3020">公開</text>
  </g>
</svg>
